<?xml version="1.0" encoding="UTF-8"?>
<!DOCTYPE svg PUBLIC "-//W3C//DTD SVG 1.1//EN" "http://www.w3.org/Graphics/SVG/1.1/DTD/svg11.dtd">
<!-- Creator: CorelDRAW X6 -->
<svg xmlns="http://www.w3.org/2000/svg" xml:space="preserve" width="3.93701in" height="1.11211in" version="1.1" style="shape-rendering:geometricPrecision; text-rendering:geometricPrecision; image-rendering:optimizeQuality; fill-rule:evenodd; clip-rule:evenodd"
viewBox="0 0 3894 1100"
 xmlns:xlink="http://www.w3.org/1999/xlink">
 <defs>
  <style type="text/css">
   <![CDATA[
    .fil2 {fill:#1A1C53}
    .fil0 {fill:#0093CF}
    .fil1 {fill:#1A1C53;fill-rule:nonzero}
    .fil3 {fill:#FEFEFE;fill-rule:nonzero}
   ]]>
  </style>
 </defs>
 <g id="Laag_x0020_1">
  <metadata id="CorelCorpID_0Corel-Layer"/>
  <g id="_937452736">
   <path class="fil0" d="M1014 493l-160 0 -192 331c-90,157 -197,235 -321,235 -76,0 -140,-27 -191,-82 -52,-55 -77,-122 -77,-203 0,-65 20,-129 60,-190 40,-60 94,-111 162,-151 51,-29 108,-50 171,-62 62,-12 146,-18 249,-18l43 0 45 -84c64,-117 141,-195 233,-234 59,-25 136,-38 231,-38 24,0 43,5 57,16 14,11 21,26 21,45 0,9 -2,19 -7,31l-5 13 -99 249c684,0 1367,0 2051,0l0 138c-702,0 -1405,0 -2107,0l-64 158 94 0 15 0c43,0 65,18 65,55 0,23 -9,43 -27,59 -18,16 -39,24 -65,24l-16 0 -124 0c-33,0 -60,-8 -81,-26 -21,-17 -32,-39 -32,-67 0,-21 8,-51 24,-90l46 -113zm57 -138l83 -205c-41,3 -75,16 -103,39 -28,23 -60,65 -96,127l-24 39 139 0zm-392 138l-49 0c-110,0 -198,21 -262,61 -41,26 -74,59 -99,98 -24,39 -37,79 -37,119 0,37 12,68 35,94 24,26 52,39 85,39 58,0 110,-38 155,-116l172 -296z"/>
   <path class="fil1" d="M1512 265l3 43 37 0 -20 -167 -46 0 -81 167 38 0 20 -43 48 0zm-38 -27l17 -36c4,-10 9,-23 13,-33l0 0c1,10 2,23 2,33l3 36 -36 0zm132 70l8 -45c4,-24 15,-44 38,-44 2,0 4,0 6,0l7 -35c-2,0 -4,0 -7,0 -17,0 -30,11 -39,27l-1 0c1,-8 1,-17 2,-25l-31 0c-1,10 -3,31 -6,49l-14 72 36 0zm91 0l23 -121 -36 0 -23 121 36 0zm10 -136c11,0 21,-7 21,-20 0,-11 -7,-18 -18,-18 -11,0 -20,8 -21,20 0,11 7,17 17,17l0 0zm119 103c-10,5 -21,8 -34,8 -10,0 -19,-3 -23,-9 -2,-3 -4,-9 -4,-12 48,1 78,-10 78,-41 0,-22 -18,-36 -42,-36 -44,0 -70,38 -70,75 0,31 18,51 52,51 13,0 31,-2 45,-10l-2 -26zm-16 -55c0,11 -14,15 -42,15 2,-11 12,-25 28,-25 8,0 13,4 13,10l0 0zm94 -34l21 121 36 0 67 -121 -40 0 -24 53c-6,15 -10,24 -13,33l-1 0c0,-9 -2,-18 -3,-33l-5 -53 -37 0zm225 121c0,-15 2,-39 5,-54l13 -63c-10,-3 -26,-6 -40,-6 -60,0 -87,44 -87,84 0,25 15,42 37,42 14,0 29,-7 41,-27l1 0c-1,9 -1,17 -2,24l33 0zm-28 -68c-5,30 -19,42 -29,42 -10,0 -15,-8 -15,-20 0,-22 17,-51 40,-51 3,0 7,0 10,1l-6 28zm90 68l10 -54c5,-27 19,-41 30,-41 9,0 12,6 12,14 0,4 0,9 -1,14l-13 67 36 0 13 -70c1,-6 2,-15 2,-21 0,-21 -11,-33 -31,-33 -16,0 -31,7 -43,23l0 0 2 -20 -32 0c-1,11 -3,24 -6,39l-15 82 36 0zm255 -176l-10 55c-5,-2 -12,-3 -17,-3 -46,0 -76,39 -76,81 0,29 17,46 38,46 14,0 29,-6 39,-22l0 0 -2 20 33 0c0,-14 3,-32 6,-47l24 -129 -36 0zm-22 116c-5,23 -17,34 -27,34 -10,0 -17,-8 -17,-23 0,-23 15,-48 36,-48 6,0 11,2 14,4l-6 33zm153 27c-10,5 -21,8 -34,8 -10,0 -19,-3 -23,-9 -2,-3 -4,-9 -4,-12 48,1 78,-10 78,-41 0,-22 -18,-36 -42,-36 -44,0 -70,38 -70,75 0,31 18,51 52,51 13,0 31,-2 45,-10l-2 -26zm-16 -55c0,11 -14,15 -42,15 2,-11 12,-25 28,-25 8,0 13,4 13,10l0 0zm77 87l8 -45c4,-24 15,-44 38,-44 2,0 4,0 6,0l7 -35c-2,0 -4,0 -7,0 -17,0 -30,11 -39,27l-1 0c1,-8 1,-17 2,-25l-31 0c-1,10 -3,31 -6,49l-14 72 36 0zm277 0l22 -167 -48 0 -31 63c-7,15 -16,35 -22,53l-1 0c0,-19 -2,-38 -3,-53l-5 -63 -48 0 -42 167 33 0 17 -69c4,-18 9,-43 14,-65l0 0c1,22 2,45 4,64l6 67 28 0 34 -68c9,-18 20,-41 29,-63l1 0c-5,24 -8,47 -11,65l-10 69 35 0zm126 -33c-10,5 -21,8 -34,8 -10,0 -19,-3 -23,-9 -2,-3 -4,-9 -4,-12 48,1 78,-10 78,-41 0,-22 -18,-36 -42,-36 -44,0 -70,38 -70,75 0,31 18,51 52,51 13,0 31,-2 45,-10l-2 -26zm-16 -55c0,11 -14,15 -42,15 2,-11 12,-25 28,-25 8,0 13,4 13,10l0 0zm141 55c-10,5 -21,8 -34,8 -10,0 -19,-3 -23,-9 -2,-3 -4,-9 -4,-12 48,1 78,-10 78,-41 0,-22 -18,-36 -42,-36 -44,0 -70,38 -70,75 0,31 18,51 52,51 13,0 31,-2 45,-10l-2 -26zm-16 -55c0,11 -14,15 -42,15 2,-11 12,-25 28,-25 8,0 13,4 13,10l0 0zm77 87l8 -45c4,-24 15,-44 38,-44 2,0 4,0 6,0l7 -35c-2,0 -4,0 -7,0 -17,0 -30,11 -39,27l-1 0c1,-8 1,-17 2,-25l-31 0c-1,10 -3,31 -6,49l-14 72 36 0z"/>
   <path class="fil2" d="M941 533l-94 0 15 -26 131 0 -38 94c-16,40 -25,72 -25,96 0,32 12,58 37,78 23,19 54,29 90,29l124 0 9 0c-1,1 -1,1 -2,2 -18,16 -39,24 -65,24l-16 0 -124 0c-33,0 -60,-8 -81,-26 -21,-17 -32,-39 -32,-67 0,-21 8,-51 24,-90l46 -113zm-544 535c-41,21 -84,31 -129,31 -76,0 -140,-27 -191,-82 -52,-54 -77,-122 -77,-203 0,-66 20,-129 60,-190 34,-52 79,-97 135,-134 -28,26 -52,55 -73,86 -41,63 -62,129 -62,197 0,84 27,155 81,212 54,57 122,86 201,86 19,0 37,-2 56,-5zm317 -728l16 -30c51,-93 111,-162 180,-205 -44,42 -84,95 -119,159l-42 77 -35 0c0,0 -1,0 -1,0zm2498 166l0 26c-678,0 -1357,0 -2035,0l11 -26 2024 0zm-2193 -166l61 -151c-3,0 -6,0 -9,1 18,-12 38,-20 61,-24l-71 175 -42 0zm-414 192l-49 0c-56,0 -106,5 -150,16 59,-28 134,-42 223,-42l25 0 -160 275c-29,51 -62,84 -97,99 13,-15 25,-32 36,-52l172 -296z"/>
   <path class="fil0" d="M3423 549l219 135 -16 25 -219 -135 16 -25zm17 -89l257 0 0 30 -257 0 0 -30zm-17 -59l219 -135 -16 -25 -219 135 16 25zm263 201l29 -27c12,7 23,14 34,23 103,-1 141,-116 89,-190 -39,-56 -102,-62 -164,-46l26 -33c12,-3 24,-6 37,-7 18,-22 26,-50 26,-78 0,-88 -89,-154 -174,-124 -29,10 -45,28 -60,55l-37 18c26,-45 57,-84 107,-102 95,-34 196,36 196,136 0,34 -12,67 -33,94 45,4 85,29 109,67 57,88 -4,207 -102,235 16,24 25,52 25,82 0,86 -79,162 -164,162 -44,0 -79,-19 -110,-49l29 -26c27,28 60,45 99,45 67,0 113,-49 112,-115 0,-50 -34,-96 -77,-120z"/>
   <path class="fil3" d="M1451 443l1 18 16 0 -8 -71 -19 0 -34 71 16 0 8 -18 20 0zm-16 -12l7 -15c2,-4 4,-10 6,-14l0 0c0,4 1,10 1,14l1 15 -15 0zm82 30l15 0 5 -28 5 0c6,0 9,3 10,11 1,9 1,15 2,17l16 0c-1,-3 -2,-12 -3,-20 -1,-6 -3,-11 -7,-13l0 0c9,-3 16,-9 16,-20 0,-7 -3,-11 -8,-14 -5,-3 -12,-4 -19,-4 -7,0 -14,1 -19,2l-13 69zm26 -59c1,0 3,-1 6,-1 6,0 11,3 11,8 0,7 -6,12 -14,12l-6 0 4 -19zm89 -12l-13 71 15 0 13 -71 -15 0zm105 28l-25 0 3 -15 27 0 3 -13 -42 0 -13 71 43 0 2 -13 -28 0 3 -17 25 0 2 -13zm86 24l1 18 16 0 -8 -71 -19 0 -34 71 16 0 8 -18 20 0zm-16 -12l7 -15c2,-4 4,-10 6,-14l0 0c0,4 1,10 1,14l1 15 -15 0zm91 -41l-7 39c-1,3 -1,7 -1,10 0,15 9,23 23,23 19,0 29,-10 33,-32l8 -40 -15 0 -8 41c-3,13 -8,18 -16,18 -7,0 -10,-4 -10,-10 0,-3 0,-6 1,-8l8 -41 -15 0zm109 71l15 0 11 -57 19 0 3 -13 -53 0 -3 13 19 0 -11 57zm123 -72c-10,0 -19,4 -26,10 -8,8 -13,21 -13,33 0,16 10,29 29,29 11,0 19,-4 26,-10 8,-8 13,-20 13,-33 0,-17 -10,-29 -29,-29zm-2 13c11,0 14,8 14,17 0,8 -3,20 -9,25 -3,3 -7,5 -12,5 -10,0 -15,-7 -15,-17 0,-8 3,-19 9,-25 3,-3 7,-5 12,-5zm148 59l10 -71 -20 0 -13 27c-3,6 -7,15 -10,23l0 0c0,-8 -1,-16 -1,-23l-2 -27 -20 0 -18 71 14 0 7 -29c2,-8 4,-18 6,-28l0 0c0,9 1,19 2,27l3 29 12 0 14 -29c4,-8 8,-18 12,-27l0 0c-2,10 -4,20 -5,28l-4 29 15 0zm94 -72c-10,0 -19,4 -26,10 -8,8 -13,21 -13,33 0,16 10,29 29,29 11,0 19,-4 26,-10 8,-8 13,-20 13,-33 0,-17 -10,-29 -29,-29zm-2 13c11,0 14,8 14,17 0,8 -3,20 -9,25 -3,3 -7,5 -12,5 -10,0 -15,-7 -15,-17 0,-8 3,-19 9,-25 3,-3 7,-5 12,-5zm89 59l5 -25c2,-11 4,-21 5,-28l0 0c2,9 4,15 7,25l10 28 16 0 13 -71 -14 0 -5 26c-2,10 -3,18 -3,25l0 0c-2,-8 -4,-15 -6,-24l-9 -27 -18 0 -13 71 14 0zm109 0l15 0 11 -57 19 0 3 -13 -53 0 -3 13 19 0 -11 57zm116 -18l1 18 16 0 -8 -71 -19 0 -34 71 16 0 8 -18 20 0zm-16 -12l7 -15c2,-4 4,-10 6,-14l0 0c0,4 1,10 1,14l1 15 -15 0zm144 -10l-26 0 -2 12 11 0 -3 15c-2,1 -4,1 -8,1 -11,0 -18,-6 -18,-18 0,-10 4,-18 10,-23 5,-4 11,-6 18,-6 6,0 12,1 15,3l5 -13c-3,-1 -10,-3 -19,-3 -12,0 -23,4 -31,10 -9,8 -14,19 -14,32 0,9 3,17 9,22 6,5 14,8 24,8 9,0 17,-2 23,-4l7 -37zm94 -2l-25 0 3 -15 27 0 3 -13 -42 0 -13 71 43 0 2 -13 -28 0 3 -17 25 0 2 -13zm53 44c6,0 10,-4 10,-10 0,-5 -4,-9 -9,-9 -6,0 -10,5 -10,11 0,5 3,9 8,9l0 0zm73 -1l5 -25c2,-11 4,-21 5,-28l0 0c2,9 4,15 7,25l10 28 16 0 13 -71 -14 0 -5 26c-2,10 -3,18 -3,25l0 0c-2,-8 -4,-15 -6,-24l-9 -27 -18 0 -13 71 14 0zm96 0l42 0 3 -13 -27 0 11 -57 -15 0 -13 71z"/>
   <path class="fil1" d="M1406 677c4,3 12,5 23,6 17,0 32,-9 32,-27 0,-9 -6,-16 -16,-21 -7,-4 -11,-7 -11,-11 0,-4 4,-8 12,-8 7,0 12,2 15,3l5 -14c-3,-2 -9,-4 -19,-4 -17,0 -31,10 -31,26 0,10 8,16 16,21 7,4 11,7 11,11 0,6 -6,9 -12,9 -7,0 -14,-2 -19,-5l-6 14zm125 -11c-4,2 -9,3 -15,3 -14,0 -21,-8 -21,-21 0,-11 4,-20 11,-25 5,-4 11,-6 18,-6 7,0 12,1 14,3l5 -14c-2,-1 -9,-3 -17,-3 -11,0 -21,3 -29,8 -12,8 -20,22 -20,39 0,21 14,33 35,33 9,0 17,-2 21,-3l-1 -14zm32 -63l-15 79 17 0 6 -33 28 0 -6 33 17 0 15 -79 -17 0 -6 31 -29 0 6 -31 -17 0zm113 58l2 20 18 0 -9 -79 -22 0 -38 79 18 0 9 -20 23 0zm-18 -13l8 -17c2,-5 4,-11 6,-15l0 0c0,5 1,11 1,15l2 17 -17 0zm52 32c4,1 12,2 21,2 17,0 29,-3 38,-10 10,-8 16,-21 16,-36 0,-12 -4,-19 -10,-25 -7,-6 -16,-9 -29,-9 -8,0 -15,1 -22,2l-15 76zm29 -64c2,0 4,0 7,0 14,0 21,7 21,20 0,9 -3,18 -8,24 -5,6 -13,9 -22,9 -3,0 -5,0 -7,0l10 -52zm110 18l-28 0 3 -17 30 0 3 -14 -47 0 -15 79 48 0 3 -14 -31 0 4 -19 28 0 3 -14zm54 11l-2 12 30 0 2 -12 -30 0zm106 -44c-13,14 -23,36 -23,63 0,11 2,22 6,31l12 0c-4,-11 -5,-21 -5,-32 0,-25 10,-47 22,-62l-12 0zm12 76c4,3 12,5 23,6 17,0 32,-9 32,-27 0,-9 -6,-16 -16,-21 -7,-4 -11,-7 -11,-11 0,-4 4,-8 12,-8 7,0 12,2 15,3l5 -14c-3,-2 -9,-4 -19,-4 -17,0 -31,10 -31,26 0,10 8,16 16,21 7,4 11,7 11,11 0,6 -6,9 -12,9 -7,0 -14,-2 -19,-5l-6 14zm82 4l17 0 12 -64 21 0 3 -15 -58 0 -3 15 21 0 -12 64zm98 -80c-11,0 -21,4 -29,11 -9,9 -14,23 -14,37 0,18 11,33 32,33 12,0 22,-4 29,-11 9,-9 14,-23 14,-37 0,-19 -11,-33 -32,-33zm-2 14c12,0 16,9 16,19 0,9 -3,22 -10,28 -4,3 -8,6 -13,6 -11,0 -16,-8 -16,-19 0,-9 3,-22 10,-28 4,-4 8,-6 14,-6zm91 -14c-11,0 -21,4 -29,11 -9,9 -14,23 -14,37 0,18 11,33 32,33 12,0 22,-4 29,-11 9,-9 14,-23 14,-37 0,-19 -11,-33 -32,-33zm-2 14c12,0 16,9 16,19 0,9 -3,22 -10,28 -4,3 -8,6 -13,6 -11,0 -16,-8 -16,-19 0,-9 3,-22 10,-28 4,-4 8,-6 14,-6zm126 66l11 -79 -23 0 -15 30c-3,7 -8,16 -11,25l0 0c0,-9 -1,-18 -1,-25l-2 -30 -23 0 -20 79 15 0 8 -32c2,-8 4,-20 7,-31l0 0c0,10 1,21 2,30l3 32 13 0 16 -32c4,-9 9,-19 14,-30l0 0c-2,11 -4,22 -5,31l-5 32 16 0zm25 14c13,-14 23,-36 23,-63 0,-11 -2,-22 -6,-31l-12 0c4,11 5,20 5,32 0,25 -10,47 -22,62l13 0zm75 -14l17 0 6 -31 5 0c7,0 10,3 11,12 1,10 2,16 2,19l17 0c-1,-3 -2,-14 -3,-22 -1,-7 -3,-12 -7,-14l0 0c10,-3 18,-10 18,-22 0,-7 -4,-12 -9,-15 -5,-3 -13,-5 -21,-5 -8,0 -16,1 -21,2l-15 77zm29 -65c1,0 3,-1 7,-1 7,0 12,3 12,9 0,8 -7,13 -16,13l-7 0 4 -22zm99 18l-28 0 3 -17 30 0 3 -14 -47 0 -15 79 48 0 3 -14 -31 0 4 -19 28 0 3 -14zm28 -31l-15 79 17 0 15 -79 -17 0zm39 79l5 -28c2,-12 4,-23 5,-31l0 0c2,10 4,17 8,27l11 31 17 0 15 -79 -16 0 -5 29c-2,12 -3,20 -4,28l0 0c-2,-9 -4,-17 -7,-27l-10 -30 -20 0 -15 79 16 0zm83 -79l-15 79 17 0 15 -79 -17 0zm97 34l-29 0 -3 13 12 0 -3 17c-2,1 -5,1 -9,1 -12,0 -20,-7 -20,-20 0,-11 5,-20 11,-25 5,-4 12,-6 20,-6 7,0 13,2 17,3l5 -14c-3,-2 -11,-4 -21,-4 -14,0 -26,4 -35,11 -10,9 -16,21 -16,36 0,10 4,19 10,24 7,6 15,9 26,9 10,0 19,-2 25,-4l8 -41zm27 -34l-15 79 17 0 15 -79 -17 0zm39 79l5 -28c2,-12 4,-23 5,-31l0 0c2,10 4,17 8,27l11 31 17 0 15 -79 -16 0 -5 29c-2,12 -3,20 -4,28l0 0c-2,-9 -4,-17 -7,-27l-10 -30 -20 0 -15 79 16 0zm141 -45l-29 0 -3 13 12 0 -3 17c-2,1 -5,1 -9,1 -12,0 -20,-7 -20,-20 0,-11 5,-20 11,-25 5,-4 12,-6 20,-6 7,0 13,2 17,3l5 -14c-3,-2 -11,-4 -21,-4 -14,0 -26,4 -35,11 -10,9 -16,21 -16,36 0,10 4,19 10,24 7,6 15,9 26,9 10,0 19,-2 25,-4l8 -41zm-1687 189l16 0 5 -28c2,0 4,0 7,0 10,0 19,-2 25,-7 6,-5 11,-12 11,-22 0,-8 -3,-13 -9,-17 -6,-4 -14,-5 -21,-5 -8,0 -16,1 -21,2l-15 77zm29 -65c1,0 4,-1 7,-1 7,0 12,2 12,10 0,8 -7,14 -17,14 -3,0 -5,0 -6,-1l4 -23zm89 -15c-11,0 -21,4 -29,11 -9,9 -14,23 -14,37 0,18 11,33 32,33 12,0 22,-4 29,-11 9,-9 14,-23 14,-37 0,-19 -11,-33 -32,-33zm-2 14c12,0 16,9 16,19 0,9 -3,22 -10,28 -4,3 -8,6 -13,6 -11,0 -16,-8 -16,-19 0,-9 3,-22 10,-28 4,-4 8,-6 14,-6zm98 18l-28 0 3 -17 30 0 3 -14 -47 0 -15 79 48 0 3 -14 -31 0 4 -19 28 0 3 -14zm27 47l17 0 12 -64 21 0 3 -15 -58 0 -3 15 21 0 -12 64zm52 -4c4,3 12,5 23,6 17,0 32,-9 32,-27 0,-9 -6,-16 -16,-21 -7,-4 -11,-7 -11,-11 0,-4 4,-8 12,-8 7,0 12,2 15,3l5 -14c-3,-2 -9,-4 -19,-4 -17,0 -31,10 -31,26 0,10 8,16 16,21 7,4 11,7 11,11 0,6 -6,9 -12,9 -7,0 -14,-2 -19,-5l-6 14zm122 -43l-28 0 3 -17 30 0 3 -14 -47 0 -15 79 48 0 3 -14 -31 0 4 -19 28 0 3 -14zm29 47l5 -28c2,-12 4,-23 5,-31l0 0c2,10 4,17 8,27l11 31 17 0 15 -79 -16 0 -5 29c-2,12 -3,20 -4,28l0 0c-2,-9 -4,-17 -7,-27l-10 -30 -20 0 -15 79 16 0zm175 0c-4,-5 -8,-10 -11,-15 9,-8 14,-19 19,-31l-15 0c-2,7 -6,14 -11,20 -3,-4 -7,-10 -10,-15l0 0c13,-6 19,-13 19,-22 0,-10 -8,-17 -20,-17 -14,0 -25,10 -25,23 0,5 2,9 4,13l0 0c-10,5 -19,12 -19,24 0,13 10,21 24,21 9,0 16,-3 21,-7 2,2 3,4 4,5l20 0zm-40 -11c-8,0 -12,-5 -12,-11 0,-6 4,-10 8,-12 5,7 10,14 14,20 -2,2 -5,4 -10,4l0 0zm9 -58c4,0 6,3 6,7 0,6 -5,10 -11,13 -2,-3 -4,-6 -4,-10 0,-6 4,-10 8,-10l0 0zm84 69l16 0 5 -28c2,0 4,0 7,0 10,0 19,-2 25,-7 6,-5 11,-12 11,-22 0,-8 -3,-13 -9,-17 -6,-4 -14,-5 -21,-5 -8,0 -16,1 -21,2l-15 77zm29 -65c1,0 4,-1 7,-1 7,0 12,2 12,10 0,8 -7,14 -17,14 -3,0 -5,0 -6,-1l4 -23zm89 -15c-11,0 -21,4 -29,11 -9,9 -14,23 -14,37 0,18 11,33 32,33 12,0 22,-4 29,-11 9,-9 14,-23 14,-37 0,-19 -11,-33 -32,-33zm-2 14c12,0 16,9 16,19 0,9 -3,22 -10,28 -4,3 -8,6 -13,6 -11,0 -16,-8 -16,-19 0,-9 3,-22 10,-28 4,-4 8,-6 14,-6zm44 66l47 0 3 -15 -30 0 12 -64 -17 0 -15 79zm78 -79l-15 79 17 0 15 -79 -17 0zm44 50c-2,12 -7,15 -14,15 -4,0 -7,-1 -9,-1l-3 14c2,1 8,2 13,2 18,0 26,-8 30,-28l10 -52 -17 0 -9 50zm30 24c4,3 12,5 23,6 18,0 32,-9 32,-27 0,-9 -6,-16 -16,-21 -7,-4 -11,-7 -11,-11 0,-4 4,-8 12,-8 7,0 12,2 15,3l5 -14c-3,-2 -9,-4 -19,-4 -17,0 -31,10 -31,26 0,10 8,16 16,21 7,4 11,7 11,11 0,6 -6,9 -12,9 -7,0 -14,-2 -19,-5l-6 14zm82 4l17 0 12 -64 21 0 3 -15 -58 0 -3 15 21 0 -12 64zm107 -47l-28 0 3 -17 30 0 3 -14 -47 0 -15 79 48 0 3 -14 -31 0 4 -19 28 0 3 -14zm29 47l5 -28c2,-12 4,-23 5,-31l0 0c2,10 4,17 8,27l11 31 17 0 15 -79 -16 0 -5 29c-2,12 -3,20 -4,28l0 0c-2,-9 -4,-17 -7,-27l-10 -30 -20 0 -15 79 16 0z"/>
   <path class="fil0" d="M1916 632c10,0 17,8 17,17 0,10 -8,17 -17,17 -10,0 -17,-8 -17,-17 0,-10 8,-17 17,-17z"/>
  </g>
 </g>
</svg>
